# Tiled2Unity generated file. Do not modify by hand.
# Wavefront file for 'stage-3_mesh_0002.obj'

# Vertices (Count = 1000)
v -32 -51 0
v -33 -51 0
v -33 -50 0
v -32 -50 0
v -33 -51 0
v -34 -51 0
v -34 -50 0
v -33 -50 0
v -34 -51 0
v -35 -51 0
v -35 -50 0
v -34 -50 0
v -35 -51 0
v -36 -51 0
v -36 -50 0
v -35 -50 0
v -36 -51 0
v -37 -51 0
v -37 -50 0
v -36 -50 0
v -37 -51 0
v -38 -51 0
v -38 -50 0
v -37 -50 0
v -38 -51 0
v -39 -51 0
v -39 -50 0
v -38 -50 0
v -39 -51 0
v -40 -51 0
v -40 -50 0
v -39 -50 0
v -40 -51 0
v -41 -51 0
v -41 -50 0
v -40 -50 0
v -32 -52 0
v -33 -52 0
v -33 -51 0
v -32 -51 0
v -33 -52 0
v -34 -52 0
v -34 -51 0
v -33 -51 0
v -34 -52 0
v -35 -52 0
v -35 -51 0
v -34 -51 0
v -35 -52 0
v -36 -52 0
v -36 -51 0
v -35 -51 0
v -36 -52 0
v -37 -52 0
v -37 -51 0
v -36 -51 0
v -37 -52 0
v -38 -52 0
v -38 -51 0
v -37 -51 0
v -38 -52 0
v -39 -52 0
v -39 -51 0
v -38 -51 0
v -39 -52 0
v -40 -52 0
v -40 -51 0
v -39 -51 0
v -40 -52 0
v -41 -52 0
v -41 -51 0
v -40 -51 0
v -12 -53 0
v -13 -53 0
v -13 -52 0
v -12 -52 0
v -13 -53 0
v -14 -53 0
v -14 -52 0
v -13 -52 0
v -14 -53 0
v -15 -53 0
v -15 -52 0
v -14 -52 0
v -15 -53 0
v -16 -53 0
v -16 -52 0
v -15 -52 0
v -16 -53 0
v -17 -53 0
v -17 -52 0
v -16 -52 0
v -17 -53 0
v -18 -53 0
v -18 -52 0
v -17 -52 0
v -18 -53 0
v -19 -53 0
v -19 -52 0
v -18 -52 0
v -19 -53 0
v -20 -53 0
v -20 -52 0
v -19 -52 0
v -20 -53 0
v -21 -53 0
v -21 -52 0
v -20 -52 0
v -21 -53 0
v -22 -53 0
v -22 -52 0
v -21 -52 0
v -32 -53 0
v -33 -53 0
v -33 -52 0
v -32 -52 0
v -33 -53 0
v -34 -53 0
v -34 -52 0
v -33 -52 0
v -34 -53 0
v -35 -53 0
v -35 -52 0
v -34 -52 0
v -35 -53 0
v -36 -53 0
v -36 -52 0
v -35 -52 0
v -36 -53 0
v -37 -53 0
v -37 -52 0
v -36 -52 0
v -37 -53 0
v -38 -53 0
v -38 -52 0
v -37 -52 0
v -38 -53 0
v -39 -53 0
v -39 -52 0
v -38 -52 0
v -39 -53 0
v -40 -53 0
v -40 -52 0
v -39 -52 0
v -40 -53 0
v -41 -53 0
v -41 -52 0
v -40 -52 0
v -12 -54 0
v -13 -54 0
v -13 -53 0
v -12 -53 0
v -13 -54 0
v -14 -54 0
v -14 -53 0
v -13 -53 0
v -14 -54 0
v -15 -54 0
v -15 -53 0
v -14 -53 0
v -15 -54 0
v -16 -54 0
v -16 -53 0
v -15 -53 0
v -16 -54 0
v -17 -54 0
v -17 -53 0
v -16 -53 0
v -17 -54 0
v -18 -54 0
v -18 -53 0
v -17 -53 0
v -18 -54 0
v -19 -54 0
v -19 -53 0
v -18 -53 0
v -19 -54 0
v -20 -54 0
v -20 -53 0
v -19 -53 0
v -20 -54 0
v -21 -54 0
v -21 -53 0
v -20 -53 0
v -21 -54 0
v -22 -54 0
v -22 -53 0
v -21 -53 0
v -12 -55 0
v -13 -55 0
v -13 -54 0
v -12 -54 0
v -13 -55 0
v -14 -55 0
v -14 -54 0
v -13 -54 0
v -14 -55 0
v -15 -55 0
v -15 -54 0
v -14 -54 0
v -15 -55 0
v -16 -55 0
v -16 -54 0
v -15 -54 0
v -16 -55 0
v -17 -55 0
v -17 -54 0
v -16 -54 0
v -17 -55 0
v -18 -55 0
v -18 -54 0
v -17 -54 0
v -18 -55 0
v -19 -55 0
v -19 -54 0
v -18 -54 0
v -19 -55 0
v -20 -55 0
v -20 -54 0
v -19 -54 0
v -20 -55 0
v -21 -55 0
v -21 -54 0
v -20 -54 0
v -21 -55 0
v -22 -55 0
v -22 -54 0
v -21 -54 0
v -45 -55 0
v -46 -55 0
v -46 -54 0
v -45 -54 0
v -46 -55 0
v -47 -55 0
v -47 -54 0
v -46 -54 0
v -47 -55 0
v -48 -55 0
v -48 -54 0
v -47 -54 0
v -48 -55 0
v -49 -55 0
v -49 -54 0
v -48 -54 0
v -49 -55 0
v -50 -55 0
v -50 -54 0
v -49 -54 0
v -45 -56 0
v -46 -56 0
v -46 -55 0
v -45 -55 0
v -46 -56 0
v -47 -56 0
v -47 -55 0
v -46 -55 0
v -47 -56 0
v -48 -56 0
v -48 -55 0
v -47 -55 0
v -48 -56 0
v -49 -56 0
v -49 -55 0
v -48 -55 0
v -49 -56 0
v -50 -56 0
v -50 -55 0
v -49 -55 0
v -45 -57 0
v -46 -57 0
v -46 -56 0
v -45 -56 0
v -46 -57 0
v -47 -57 0
v -47 -56 0
v -46 -56 0
v -47 -57 0
v -48 -57 0
v -48 -56 0
v -47 -56 0
v -48 -57 0
v -49 -57 0
v -49 -56 0
v -48 -56 0
v -49 -57 0
v -50 -57 0
v -50 -56 0
v -49 -56 0
v -48 -63 0
v -49 -63 0
v -49 -62 0
v -48 -62 0
v -49 -63 0
v -50 -63 0
v -50 -62 0
v -49 -62 0
v -48 -64 0
v -49 -64 0
v -49 -63 0
v -48 -63 0
v -49 -64 0
v -50 -64 0
v -50 -63 0
v -49 -63 0
v -48 -65 0
v -49 -65 0
v -49 -64 0
v -48 -64 0
v -49 -65 0
v -50 -65 0
v -50 -64 0
v -49 -64 0
v -48 -66 0
v -49 -66 0
v -49 -65 0
v -48 -65 0
v -49 -66 0
v -50 -66 0
v -50 -65 0
v -49 -65 0
v -48 -67 0
v -49 -67 0
v -49 -66 0
v -48 -66 0
v -49 -67 0
v -50 -67 0
v -50 -66 0
v -49 -66 0
v -5 -68 0
v -6 -68 0
v -6 -67 0
v -5 -67 0
v -6 -68 0
v -7 -68 0
v -7 -67 0
v -6 -67 0
v -7 -68 0
v -8 -68 0
v -8 -67 0
v -7 -67 0
v -8 -68 0
v -9 -68 0
v -9 -67 0
v -8 -67 0
v -9 -68 0
v -10 -68 0
v -10 -67 0
v -9 -67 0
v -10 -68 0
v -11 -68 0
v -11 -67 0
v -10 -67 0
v -11 -68 0
v -12 -68 0
v -12 -67 0
v -11 -67 0
v -12 -68 0
v -13 -68 0
v -13 -67 0
v -12 -67 0
v -13 -68 0
v -14 -68 0
v -14 -67 0
v -13 -67 0
v -26 -68 0
v -27 -68 0
v -27 -67 0
v -26 -67 0
v -27 -68 0
v -28 -68 0
v -28 -67 0
v -27 -67 0
v -28 -68 0
v -29 -68 0
v -29 -67 0
v -28 -67 0
v -29 -68 0
v -30 -68 0
v -30 -67 0
v -29 -67 0
v -30 -68 0
v -31 -68 0
v -31 -67 0
v -30 -67 0
v -31 -68 0
v -32 -68 0
v -32 -67 0
v -31 -67 0
v -32 -68 0
v -33 -68 0
v -33 -67 0
v -32 -67 0
v -33 -68 0
v -34 -68 0
v -34 -67 0
v -33 -67 0
v -34 -68 0
v -35 -68 0
v -35 -67 0
v -34 -67 0
v -35 -68 0
v -36 -68 0
v -36 -67 0
v -35 -67 0
v -48 -68 0
v -49 -68 0
v -49 -67 0
v -48 -67 0
v -49 -68 0
v -50 -68 0
v -50 -67 0
v -49 -67 0
v -5 -69 0
v -6 -69 0
v -6 -68 0
v -5 -68 0
v -6 -69 0
v -7 -69 0
v -7 -68 0
v -6 -68 0
v -7 -69 0
v -8 -69 0
v -8 -68 0
v -7 -68 0
v -8 -69 0
v -9 -69 0
v -9 -68 0
v -8 -68 0
v -9 -69 0
v -10 -69 0
v -10 -68 0
v -9 -68 0
v -10 -69 0
v -11 -69 0
v -11 -68 0
v -10 -68 0
v -11 -69 0
v -12 -69 0
v -12 -68 0
v -11 -68 0
v -12 -69 0
v -13 -69 0
v -13 -68 0
v -12 -68 0
v -13 -69 0
v -14 -69 0
v -14 -68 0
v -13 -68 0
v -26 -69 0
v -27 -69 0
v -27 -68 0
v -26 -68 0
v -27 -69 0
v -28 -69 0
v -28 -68 0
v -27 -68 0
v -28 -69 0
v -29 -69 0
v -29 -68 0
v -28 -68 0
v -29 -69 0
v -30 -69 0
v -30 -68 0
v -29 -68 0
v -30 -69 0
v -31 -69 0
v -31 -68 0
v -30 -68 0
v -31 -69 0
v -32 -69 0
v -32 -68 0
v -31 -68 0
v -32 -69 0
v -33 -69 0
v -33 -68 0
v -32 -68 0
v -33 -69 0
v -34 -69 0
v -34 -68 0
v -33 -68 0
v -34 -69 0
v -35 -69 0
v -35 -68 0
v -34 -68 0
v -35 -69 0
v -36 -69 0
v -36 -68 0
v -35 -68 0
v -48 -69 0
v -49 -69 0
v -49 -68 0
v -48 -68 0
v -49 -69 0
v -50 -69 0
v -50 -68 0
v -49 -68 0
v -5 -70 0
v -6 -70 0
v -6 -69 0
v -5 -69 0
v -6 -70 0
v -7 -70 0
v -7 -69 0
v -6 -69 0
v -7 -70 0
v -8 -70 0
v -8 -69 0
v -7 -69 0
v -8 -70 0
v -9 -70 0
v -9 -69 0
v -8 -69 0
v -9 -70 0
v -10 -70 0
v -10 -69 0
v -9 -69 0
v -10 -70 0
v -11 -70 0
v -11 -69 0
v -10 -69 0
v -11 -70 0
v -12 -70 0
v -12 -69 0
v -11 -69 0
v -12 -70 0
v -13 -70 0
v -13 -69 0
v -12 -69 0
v -13 -70 0
v -14 -70 0
v -14 -69 0
v -13 -69 0
v -26 -70 0
v -27 -70 0
v -27 -69 0
v -26 -69 0
v -27 -70 0
v -28 -70 0
v -28 -69 0
v -27 -69 0
v -28 -70 0
v -29 -70 0
v -29 -69 0
v -28 -69 0
v -29 -70 0
v -30 -70 0
v -30 -69 0
v -29 -69 0
v -30 -70 0
v -31 -70 0
v -31 -69 0
v -30 -69 0
v -31 -70 0
v -32 -70 0
v -32 -69 0
v -31 -69 0
v -32 -70 0
v -33 -70 0
v -33 -69 0
v -32 -69 0
v -33 -70 0
v -34 -70 0
v -34 -69 0
v -33 -69 0
v -34 -70 0
v -35 -70 0
v -35 -69 0
v -34 -69 0
v -35 -70 0
v -36 -70 0
v -36 -69 0
v -35 -69 0
v -48 -70 0
v -49 -70 0
v -49 -69 0
v -48 -69 0
v -49 -70 0
v -50 -70 0
v -50 -69 0
v -49 -69 0
v -5 -71 0
v -6 -71 0
v -6 -70 0
v -5 -70 0
v -6 -71 0
v -7 -71 0
v -7 -70 0
v -6 -70 0
v -7 -71 0
v -8 -71 0
v -8 -70 0
v -7 -70 0
v -8 -71 0
v -9 -71 0
v -9 -70 0
v -8 -70 0
v -9 -71 0
v -10 -71 0
v -10 -70 0
v -9 -70 0
v -10 -71 0
v -11 -71 0
v -11 -70 0
v -10 -70 0
v -11 -71 0
v -12 -71 0
v -12 -70 0
v -11 -70 0
v -12 -71 0
v -13 -71 0
v -13 -70 0
v -12 -70 0
v -13 -71 0
v -14 -71 0
v -14 -70 0
v -13 -70 0
v -26 -71 0
v -27 -71 0
v -27 -70 0
v -26 -70 0
v -27 -71 0
v -28 -71 0
v -28 -70 0
v -27 -70 0
v -28 -71 0
v -29 -71 0
v -29 -70 0
v -28 -70 0
v -29 -71 0
v -30 -71 0
v -30 -70 0
v -29 -70 0
v -30 -71 0
v -31 -71 0
v -31 -70 0
v -30 -70 0
v -31 -71 0
v -32 -71 0
v -32 -70 0
v -31 -70 0
v -32 -71 0
v -33 -71 0
v -33 -70 0
v -32 -70 0
v -33 -71 0
v -34 -71 0
v -34 -70 0
v -33 -70 0
v -34 -71 0
v -35 -71 0
v -35 -70 0
v -34 -70 0
v -35 -71 0
v -36 -71 0
v -36 -70 0
v -35 -70 0
v -48 -71 0
v -49 -71 0
v -49 -70 0
v -48 -70 0
v -49 -71 0
v -50 -71 0
v -50 -70 0
v -49 -70 0
v -5 -72 0
v -6 -72 0
v -6 -71 0
v -5 -71 0
v -6 -72 0
v -7 -72 0
v -7 -71 0
v -6 -71 0
v -7 -72 0
v -8 -72 0
v -8 -71 0
v -7 -71 0
v -8 -72 0
v -9 -72 0
v -9 -71 0
v -8 -71 0
v -9 -72 0
v -10 -72 0
v -10 -71 0
v -9 -71 0
v -10 -72 0
v -11 -72 0
v -11 -71 0
v -10 -71 0
v -11 -72 0
v -12 -72 0
v -12 -71 0
v -11 -71 0
v -12 -72 0
v -13 -72 0
v -13 -71 0
v -12 -71 0
v -13 -72 0
v -14 -72 0
v -14 -71 0
v -13 -71 0
v -26 -72 0
v -27 -72 0
v -27 -71 0
v -26 -71 0
v -27 -72 0
v -28 -72 0
v -28 -71 0
v -27 -71 0
v -28 -72 0
v -29 -72 0
v -29 -71 0
v -28 -71 0
v -29 -72 0
v -30 -72 0
v -30 -71 0
v -29 -71 0
v -30 -72 0
v -31 -72 0
v -31 -71 0
v -30 -71 0
v -31 -72 0
v -32 -72 0
v -32 -71 0
v -31 -71 0
v -32 -72 0
v -33 -72 0
v -33 -71 0
v -32 -71 0
v -33 -72 0
v -34 -72 0
v -34 -71 0
v -33 -71 0
v -34 -72 0
v -35 -72 0
v -35 -71 0
v -34 -71 0
v -35 -72 0
v -36 -72 0
v -36 -71 0
v -35 -71 0
v -48 -72 0
v -49 -72 0
v -49 -71 0
v -48 -71 0
v -49 -72 0
v -50 -72 0
v -50 -71 0
v -49 -71 0
v -5 -73 0
v -6 -73 0
v -6 -72 0
v -5 -72 0
v -6 -73 0
v -7 -73 0
v -7 -72 0
v -6 -72 0
v -7 -73 0
v -8 -73 0
v -8 -72 0
v -7 -72 0
v -8 -73 0
v -9 -73 0
v -9 -72 0
v -8 -72 0
v -9 -73 0
v -10 -73 0
v -10 -72 0
v -9 -72 0
v -10 -73 0
v -11 -73 0
v -11 -72 0
v -10 -72 0
v -11 -73 0
v -12 -73 0
v -12 -72 0
v -11 -72 0
v -12 -73 0
v -13 -73 0
v -13 -72 0
v -12 -72 0
v -13 -73 0
v -14 -73 0
v -14 -72 0
v -13 -72 0
v -26 -73 0
v -27 -73 0
v -27 -72 0
v -26 -72 0
v -27 -73 0
v -28 -73 0
v -28 -72 0
v -27 -72 0
v -28 -73 0
v -29 -73 0
v -29 -72 0
v -28 -72 0
v -29 -73 0
v -30 -73 0
v -30 -72 0
v -29 -72 0
v -30 -73 0
v -31 -73 0
v -31 -72 0
v -30 -72 0
v -31 -73 0
v -32 -73 0
v -32 -72 0
v -31 -72 0
v -32 -73 0
v -33 -73 0
v -33 -72 0
v -32 -72 0
v -33 -73 0
v -34 -73 0
v -34 -72 0
v -33 -72 0
v -34 -73 0
v -35 -73 0
v -35 -72 0
v -34 -72 0
v -35 -73 0
v -36 -73 0
v -36 -72 0
v -35 -72 0
v -48 -73 0
v -49 -73 0
v -49 -72 0
v -48 -72 0
v -49 -73 0
v -50 -73 0
v -50 -72 0
v -49 -72 0
v -5 -74 0
v -6 -74 0
v -6 -73 0
v -5 -73 0
v -6 -74 0
v -7 -74 0
v -7 -73 0
v -6 -73 0
v -7 -74 0
v -8 -74 0
v -8 -73 0
v -7 -73 0
v -8 -74 0
v -9 -74 0
v -9 -73 0
v -8 -73 0
v -9 -74 0
v -10 -74 0
v -10 -73 0
v -9 -73 0
v -10 -74 0
v -11 -74 0
v -11 -73 0
v -10 -73 0
v -11 -74 0
v -12 -74 0
v -12 -73 0
v -11 -73 0
v -12 -74 0
v -13 -74 0
v -13 -73 0
v -12 -73 0
v -13 -74 0
v -14 -74 0
v -14 -73 0
v -13 -73 0
v -26 -74 0
v -27 -74 0
v -27 -73 0
v -26 -73 0
v -27 -74 0
v -28 -74 0
v -28 -73 0
v -27 -73 0
v -28 -74 0
v -29 -74 0
v -29 -73 0
v -28 -73 0
v -29 -74 0
v -30 -74 0
v -30 -73 0
v -29 -73 0
v -30 -74 0
v -31 -74 0
v -31 -73 0
v -30 -73 0
v -31 -74 0
v -32 -74 0
v -32 -73 0
v -31 -73 0
v -32 -74 0
v -33 -74 0
v -33 -73 0
v -32 -73 0
v -33 -74 0
v -34 -74 0
v -34 -73 0
v -33 -73 0
v -34 -74 0
v -35 -74 0
v -35 -73 0
v -34 -73 0
v -35 -74 0
v -36 -74 0
v -36 -73 0
v -35 -73 0
v -48 -74 0
v -49 -74 0
v -49 -73 0
v -48 -73 0
v -49 -74 0
v -50 -74 0
v -50 -73 0
v -49 -73 0
v -5 -75 0
v -6 -75 0
v -6 -74 0
v -5 -74 0
v -6 -75 0
v -7 -75 0
v -7 -74 0
v -6 -74 0
v -7 -75 0
v -8 -75 0
v -8 -74 0
v -7 -74 0
v -8 -75 0
v -9 -75 0
v -9 -74 0
v -8 -74 0
v -9 -75 0
v -10 -75 0
v -10 -74 0
v -9 -74 0
v -10 -75 0
v -11 -75 0
v -11 -74 0
v -10 -74 0
v -11 -75 0
v -12 -75 0
v -12 -74 0
v -11 -74 0
v -12 -75 0
v -13 -75 0
v -13 -74 0
v -12 -74 0
v -13 -75 0
v -14 -75 0
v -14 -74 0
v -13 -74 0
v -26 -75 0
v -27 -75 0
v -27 -74 0
v -26 -74 0
v -27 -75 0
v -28 -75 0
v -28 -74 0
v -27 -74 0
v -28 -75 0
v -29 -75 0
v -29 -74 0
v -28 -74 0
v -29 -75 0
v -30 -75 0
v -30 -74 0
v -29 -74 0
v -30 -75 0
v -31 -75 0
v -31 -74 0
v -30 -74 0
v -31 -75 0
v -32 -75 0
v -32 -74 0
v -31 -74 0
v -32 -75 0
v -33 -75 0
v -33 -74 0
v -32 -74 0
v -33 -75 0
v -34 -75 0
v -34 -74 0
v -33 -74 0
v -34 -75 0
v -35 -75 0
v -35 -74 0
v -34 -74 0
v -35 -75 0
v -36 -75 0
v -36 -74 0
v -35 -74 0
v -48 -75 0
v -49 -75 0
v -49 -74 0
v -48 -74 0
v -49 -75 0
v -50 -75 0
v -50 -74 0
v -49 -74 0

# Texture cooridinates (Count = 27)
vt 0.6470588 0.375
vt 0.7058824 0.375
vt 0.7058824 0.5
vt 0.6470588 0.5
vt 0.7647059 0.375
vt 0.7647059 0.5
vt 0.8235294 0.375
vt 0.8235294 0.5
vt 0.6470588 0.25
vt 0.7058824 0.25
vt 0.7647059 0.25
vt 0.8235294 0.25
vt 0.6470588 0.125
vt 0.7058824 0.125
vt 0.7647059 0.125
vt 0.8235294 0.125
vt 0.5882353 0.625
vt 0.6470588 0.625
vt 0.6470588 0.75
vt 0.5882353 0.75
vt 0.7058824 0.625
vt 0.7647059 0.625
vt 0.7647059 0.75
vt 0.7058824 0.75
vt 0.5882353 0.5
vt 0.7058824 0.875
vt 0.6470588 0.875

# Normal
vn 0 0 -1

# Mesh description
g stage-3_mesh_0002

# Faces
f 1/1/1 2/2/1 3/3/1 4/4/1
f 5/2/1 6/5/1 7/6/1 8/3/1
f 9/2/1 10/5/1 11/6/1 12/3/1
f 13/2/1 14/5/1 15/6/1 16/3/1
f 17/2/1 18/5/1 19/6/1 20/3/1
f 21/2/1 22/5/1 23/6/1 24/3/1
f 25/2/1 26/5/1 27/6/1 28/3/1
f 29/2/1 30/5/1 31/6/1 32/3/1
f 33/5/1 34/7/1 35/8/1 36/6/1
f 37/9/1 38/10/1 39/2/1 40/1/1
f 41/10/1 42/11/1 43/5/1 44/2/1
f 45/10/1 46/11/1 47/5/1 48/2/1
f 49/10/1 50/11/1 51/5/1 52/2/1
f 53/10/1 54/11/1 55/5/1 56/2/1
f 57/10/1 58/11/1 59/5/1 60/2/1
f 61/10/1 62/11/1 63/5/1 64/2/1
f 65/10/1 66/11/1 67/5/1 68/2/1
f 69/11/1 70/12/1 71/7/1 72/5/1
f 73/1/1 74/2/1 75/3/1 76/4/1
f 77/2/1 78/5/1 79/6/1 80/3/1
f 81/2/1 82/5/1 83/6/1 84/3/1
f 85/2/1 86/5/1 87/6/1 88/3/1
f 89/2/1 90/5/1 91/6/1 92/3/1
f 93/2/1 94/5/1 95/6/1 96/3/1
f 97/2/1 98/5/1 99/6/1 100/3/1
f 101/2/1 102/5/1 103/6/1 104/3/1
f 105/2/1 106/5/1 107/6/1 108/3/1
f 109/5/1 110/7/1 111/8/1 112/6/1
f 113/13/1 114/14/1 115/10/1 116/9/1
f 117/14/1 118/15/1 119/11/1 120/10/1
f 121/14/1 122/15/1 123/11/1 124/10/1
f 125/14/1 126/15/1 127/11/1 128/10/1
f 129/14/1 130/15/1 131/11/1 132/10/1
f 133/14/1 134/15/1 135/11/1 136/10/1
f 137/14/1 138/15/1 139/11/1 140/10/1
f 141/14/1 142/15/1 143/11/1 144/10/1
f 145/15/1 146/16/1 147/12/1 148/11/1
f 149/9/1 150/10/1 151/2/1 152/1/1
f 153/10/1 154/11/1 155/5/1 156/2/1
f 157/10/1 158/11/1 159/5/1 160/2/1
f 161/10/1 162/11/1 163/5/1 164/2/1
f 165/10/1 166/11/1 167/5/1 168/2/1
f 169/10/1 170/11/1 171/5/1 172/2/1
f 173/10/1 174/11/1 175/5/1 176/2/1
f 177/10/1 178/11/1 179/5/1 180/2/1
f 181/10/1 182/11/1 183/5/1 184/2/1
f 185/11/1 186/12/1 187/7/1 188/5/1
f 189/13/1 190/14/1 191/10/1 192/9/1
f 193/14/1 194/15/1 195/11/1 196/10/1
f 197/14/1 198/15/1 199/11/1 200/10/1
f 201/14/1 202/15/1 203/11/1 204/10/1
f 205/14/1 206/15/1 207/11/1 208/10/1
f 209/14/1 210/15/1 211/11/1 212/10/1
f 213/14/1 214/15/1 215/11/1 216/10/1
f 217/14/1 218/15/1 219/11/1 220/10/1
f 221/14/1 222/15/1 223/11/1 224/10/1
f 225/15/1 226/16/1 227/12/1 228/11/1
f 229/1/1 230/2/1 231/3/1 232/4/1
f 233/2/1 234/5/1 235/6/1 236/3/1
f 237/2/1 238/5/1 239/6/1 240/3/1
f 241/2/1 242/5/1 243/6/1 244/3/1
f 245/5/1 246/7/1 247/8/1 248/6/1
f 249/9/1 250/10/1 251/2/1 252/1/1
f 253/10/1 254/11/1 255/5/1 256/2/1
f 257/10/1 258/11/1 259/5/1 260/2/1
f 261/10/1 262/11/1 263/5/1 264/2/1
f 265/11/1 266/12/1 267/7/1 268/5/1
f 269/13/1 270/14/1 271/10/1 272/9/1
f 273/14/1 274/15/1 275/11/1 276/10/1
f 277/14/1 278/15/1 279/11/1 280/10/1
f 281/14/1 282/15/1 283/11/1 284/10/1
f 285/15/1 286/16/1 287/12/1 288/11/1
f 289/17/1 290/18/1 291/19/1 292/20/1
f 293/21/1 294/22/1 295/23/1 296/24/1
f 297/25/1 298/4/1 299/18/1 300/17/1
f 301/3/1 302/6/1 303/22/1 304/21/1
f 305/25/1 306/4/1 307/18/1 308/17/1
f 309/3/1 310/6/1 311/22/1 312/21/1
f 313/25/1 314/4/1 315/18/1 316/17/1
f 317/3/1 318/6/1 319/22/1 320/21/1
f 321/25/1 322/4/1 323/18/1 324/17/1
f 325/3/1 326/6/1 327/22/1 328/21/1
f 329/17/1 330/18/1 331/19/1 332/20/1
f 333/18/1 334/21/1 335/24/1 336/19/1
f 337/18/1 338/21/1 339/24/1 340/19/1
f 341/18/1 342/21/1 343/24/1 344/19/1
f 345/18/1 346/21/1 347/24/1 348/19/1
f 349/18/1 350/21/1 351/24/1 352/19/1
f 353/18/1 354/21/1 355/24/1 356/19/1
f 357/18/1 358/21/1 359/24/1 360/19/1
f 361/21/1 362/22/1 363/23/1 364/24/1
f 365/17/1 366/18/1 367/19/1 368/20/1
f 369/18/1 370/21/1 371/24/1 372/19/1
f 373/18/1 374/21/1 375/24/1 376/19/1
f 377/18/1 378/21/1 379/24/1 380/19/1
f 381/18/1 382/21/1 383/24/1 384/19/1
f 385/18/1 386/21/1 387/24/1 388/19/1
f 389/18/1 390/21/1 391/24/1 392/19/1
f 393/18/1 394/21/1 395/24/1 396/19/1
f 397/18/1 398/21/1 399/24/1 400/19/1
f 401/21/1 402/22/1 403/23/1 404/24/1
f 405/25/1 406/4/1 407/18/1 408/17/1
f 409/3/1 410/6/1 411/22/1 412/21/1
f 413/25/1 414/4/1 415/18/1 416/17/1
f 417/19/1 418/24/1 419/26/1 420/27/1
f 421/19/1 422/24/1 423/26/1 424/27/1
f 425/19/1 426/24/1 427/26/1 428/27/1
f 429/19/1 430/24/1 431/26/1 432/27/1
f 433/19/1 434/24/1 435/26/1 436/27/1
f 437/19/1 438/24/1 439/26/1 440/27/1
f 441/19/1 442/24/1 443/26/1 444/27/1
f 445/3/1 446/6/1 447/22/1 448/21/1
f 449/25/1 450/4/1 451/18/1 452/17/1
f 453/19/1 454/24/1 455/26/1 456/27/1
f 457/19/1 458/24/1 459/26/1 460/27/1
f 461/19/1 462/24/1 463/26/1 464/27/1
f 465/19/1 466/24/1 467/26/1 468/27/1
f 469/19/1 470/24/1 471/26/1 472/27/1
f 473/19/1 474/24/1 475/26/1 476/27/1
f 477/19/1 478/24/1 479/26/1 480/27/1
f 481/19/1 482/24/1 483/26/1 484/27/1
f 485/3/1 486/6/1 487/22/1 488/21/1
f 489/25/1 490/4/1 491/18/1 492/17/1
f 493/3/1 494/6/1 495/22/1 496/21/1
f 497/25/1 498/4/1 499/18/1 500/17/1
f 501/19/1 502/24/1 503/26/1 504/27/1
f 505/19/1 506/24/1 507/26/1 508/27/1
f 509/19/1 510/24/1 511/26/1 512/27/1
f 513/19/1 514/24/1 515/26/1 516/27/1
f 517/19/1 518/24/1 519/26/1 520/27/1
f 521/19/1 522/24/1 523/26/1 524/27/1
f 525/19/1 526/24/1 527/26/1 528/27/1
f 529/3/1 530/6/1 531/22/1 532/21/1
f 533/25/1 534/4/1 535/18/1 536/17/1
f 537/19/1 538/24/1 539/26/1 540/27/1
f 541/19/1 542/24/1 543/26/1 544/27/1
f 545/19/1 546/24/1 547/26/1 548/27/1
f 549/19/1 550/24/1 551/26/1 552/27/1
f 553/19/1 554/24/1 555/26/1 556/27/1
f 557/19/1 558/24/1 559/26/1 560/27/1
f 561/19/1 562/24/1 563/26/1 564/27/1
f 565/19/1 566/24/1 567/26/1 568/27/1
f 569/3/1 570/6/1 571/22/1 572/21/1
f 573/25/1 574/4/1 575/18/1 576/17/1
f 577/3/1 578/6/1 579/22/1 580/21/1
f 581/25/1 582/4/1 583/18/1 584/17/1
f 585/19/1 586/24/1 587/26/1 588/27/1
f 589/19/1 590/24/1 591/26/1 592/27/1
f 593/19/1 594/24/1 595/26/1 596/27/1
f 597/19/1 598/24/1 599/26/1 600/27/1
f 601/19/1 602/24/1 603/26/1 604/27/1
f 605/19/1 606/24/1 607/26/1 608/27/1
f 609/19/1 610/24/1 611/26/1 612/27/1
f 613/3/1 614/6/1 615/22/1 616/21/1
f 617/25/1 618/4/1 619/18/1 620/17/1
f 621/19/1 622/24/1 623/26/1 624/27/1
f 625/19/1 626/24/1 627/26/1 628/27/1
f 629/19/1 630/24/1 631/26/1 632/27/1
f 633/19/1 634/24/1 635/26/1 636/27/1
f 637/19/1 638/24/1 639/26/1 640/27/1
f 641/19/1 642/24/1 643/26/1 644/27/1
f 645/19/1 646/24/1 647/26/1 648/27/1
f 649/19/1 650/24/1 651/26/1 652/27/1
f 653/3/1 654/6/1 655/22/1 656/21/1
f 657/25/1 658/4/1 659/18/1 660/17/1
f 661/3/1 662/6/1 663/22/1 664/21/1
f 665/25/1 666/4/1 667/18/1 668/17/1
f 669/19/1 670/24/1 671/26/1 672/27/1
f 673/19/1 674/24/1 675/26/1 676/27/1
f 677/19/1 678/24/1 679/26/1 680/27/1
f 681/19/1 682/24/1 683/26/1 684/27/1
f 685/19/1 686/24/1 687/26/1 688/27/1
f 689/19/1 690/24/1 691/26/1 692/27/1
f 693/19/1 694/24/1 695/26/1 696/27/1
f 697/3/1 698/6/1 699/22/1 700/21/1
f 701/25/1 702/4/1 703/18/1 704/17/1
f 705/19/1 706/24/1 707/26/1 708/27/1
f 709/19/1 710/24/1 711/26/1 712/27/1
f 713/19/1 714/24/1 715/26/1 716/27/1
f 717/19/1 718/24/1 719/26/1 720/27/1
f 721/19/1 722/24/1 723/26/1 724/27/1
f 725/19/1 726/24/1 727/26/1 728/27/1
f 729/19/1 730/24/1 731/26/1 732/27/1
f 733/19/1 734/24/1 735/26/1 736/27/1
f 737/3/1 738/6/1 739/22/1 740/21/1
f 741/25/1 742/4/1 743/18/1 744/17/1
f 745/3/1 746/6/1 747/22/1 748/21/1
f 749/25/1 750/4/1 751/18/1 752/17/1
f 753/19/1 754/24/1 755/26/1 756/27/1
f 757/19/1 758/24/1 759/26/1 760/27/1
f 761/19/1 762/24/1 763/26/1 764/27/1
f 765/19/1 766/24/1 767/26/1 768/27/1
f 769/19/1 770/24/1 771/26/1 772/27/1
f 773/19/1 774/24/1 775/26/1 776/27/1
f 777/19/1 778/24/1 779/26/1 780/27/1
f 781/3/1 782/6/1 783/22/1 784/21/1
f 785/25/1 786/4/1 787/18/1 788/17/1
f 789/19/1 790/24/1 791/26/1 792/27/1
f 793/19/1 794/24/1 795/26/1 796/27/1
f 797/19/1 798/24/1 799/26/1 800/27/1
f 801/19/1 802/24/1 803/26/1 804/27/1
f 805/19/1 806/24/1 807/26/1 808/27/1
f 809/19/1 810/24/1 811/26/1 812/27/1
f 813/19/1 814/24/1 815/26/1 816/27/1
f 817/19/1 818/24/1 819/26/1 820/27/1
f 821/3/1 822/6/1 823/22/1 824/21/1
f 825/25/1 826/4/1 827/18/1 828/17/1
f 829/3/1 830/6/1 831/22/1 832/21/1
f 833/25/1 834/4/1 835/18/1 836/17/1
f 837/19/1 838/24/1 839/26/1 840/27/1
f 841/19/1 842/24/1 843/26/1 844/27/1
f 845/19/1 846/24/1 847/26/1 848/27/1
f 849/19/1 850/24/1 851/26/1 852/27/1
f 853/19/1 854/24/1 855/26/1 856/27/1
f 857/19/1 858/24/1 859/26/1 860/27/1
f 861/19/1 862/24/1 863/26/1 864/27/1
f 865/3/1 866/6/1 867/22/1 868/21/1
f 869/25/1 870/4/1 871/18/1 872/17/1
f 873/19/1 874/24/1 875/26/1 876/27/1
f 877/19/1 878/24/1 879/26/1 880/27/1
f 881/19/1 882/24/1 883/26/1 884/27/1
f 885/19/1 886/24/1 887/26/1 888/27/1
f 889/19/1 890/24/1 891/26/1 892/27/1
f 893/19/1 894/24/1 895/26/1 896/27/1
f 897/19/1 898/24/1 899/26/1 900/27/1
f 901/19/1 902/24/1 903/26/1 904/27/1
f 905/3/1 906/6/1 907/22/1 908/21/1
f 909/25/1 910/4/1 911/18/1 912/17/1
f 913/3/1 914/6/1 915/22/1 916/21/1
f 917/25/1 918/4/1 919/18/1 920/17/1
f 921/19/1 922/24/1 923/26/1 924/27/1
f 925/19/1 926/24/1 927/26/1 928/27/1
f 929/19/1 930/24/1 931/26/1 932/27/1
f 933/19/1 934/24/1 935/26/1 936/27/1
f 937/19/1 938/24/1 939/26/1 940/27/1
f 941/19/1 942/24/1 943/26/1 944/27/1
f 945/19/1 946/24/1 947/26/1 948/27/1
f 949/3/1 950/6/1 951/22/1 952/21/1
f 953/25/1 954/4/1 955/18/1 956/17/1
f 957/19/1 958/24/1 959/26/1 960/27/1
f 961/19/1 962/24/1 963/26/1 964/27/1
f 965/19/1 966/24/1 967/26/1 968/27/1
f 969/19/1 970/24/1 971/26/1 972/27/1
f 973/19/1 974/24/1 975/26/1 976/27/1
f 977/19/1 978/24/1 979/26/1 980/27/1
f 981/19/1 982/24/1 983/26/1 984/27/1
f 985/19/1 986/24/1 987/26/1 988/27/1
f 989/3/1 990/6/1 991/22/1 992/21/1
f 993/25/1 994/4/1 995/18/1 996/17/1
f 997/3/1 998/6/1 999/22/1 1000/21/1

