# Tiled2Unity generated file. Do not modify by hand.
# Wavefront file for 'stage-2.5_mesh_0003.obj'

# Vertices (Count = 288)
v -33 -42 0
v -34 -42 0
v -34 -41 0
v -33 -41 0
v -34 -42 0
v -35 -42 0
v -35 -41 0
v -34 -41 0
v -35 -42 0
v -36 -42 0
v -36 -41 0
v -35 -41 0
v -36 -42 0
v -37 -42 0
v -37 -41 0
v -36 -41 0
v -37 -42 0
v -38 -42 0
v -38 -41 0
v -37 -41 0
v -38 -42 0
v -39 -42 0
v -39 -41 0
v -38 -41 0
v -39 -42 0
v -40 -42 0
v -40 -41 0
v -39 -41 0
v -40 -42 0
v -41 -42 0
v -41 -41 0
v -40 -41 0
v -33 -43 0
v -34 -43 0
v -34 -42 0
v -33 -42 0
v -34 -43 0
v -35 -43 0
v -35 -42 0
v -34 -42 0
v -35 -43 0
v -36 -43 0
v -36 -42 0
v -35 -42 0
v -36 -43 0
v -37 -43 0
v -37 -42 0
v -36 -42 0
v -37 -43 0
v -38 -43 0
v -38 -42 0
v -37 -42 0
v -38 -43 0
v -39 -43 0
v -39 -42 0
v -38 -42 0
v -39 -43 0
v -40 -43 0
v -40 -42 0
v -39 -42 0
v -40 -43 0
v -41 -43 0
v -41 -42 0
v -40 -42 0
v -33 -44 0
v -34 -44 0
v -34 -43 0
v -33 -43 0
v -34 -44 0
v -35 -44 0
v -35 -43 0
v -34 -43 0
v -35 -44 0
v -36 -44 0
v -36 -43 0
v -35 -43 0
v -36 -44 0
v -37 -44 0
v -37 -43 0
v -36 -43 0
v -37 -44 0
v -38 -44 0
v -38 -43 0
v -37 -43 0
v -38 -44 0
v -39 -44 0
v -39 -43 0
v -38 -43 0
v -39 -44 0
v -40 -44 0
v -40 -43 0
v -39 -43 0
v -40 -44 0
v -41 -44 0
v -41 -43 0
v -40 -43 0
v -33 -45 0
v -34 -45 0
v -34 -44 0
v -33 -44 0
v -34 -45 0
v -35 -45 0
v -35 -44 0
v -34 -44 0
v -35 -45 0
v -36 -45 0
v -36 -44 0
v -35 -44 0
v -36 -45 0
v -37 -45 0
v -37 -44 0
v -36 -44 0
v -37 -45 0
v -38 -45 0
v -38 -44 0
v -37 -44 0
v -38 -45 0
v -39 -45 0
v -39 -44 0
v -38 -44 0
v -39 -45 0
v -40 -45 0
v -40 -44 0
v -39 -44 0
v -40 -45 0
v -41 -45 0
v -41 -44 0
v -40 -44 0
v -33 -46 0
v -34 -46 0
v -34 -45 0
v -33 -45 0
v -34 -46 0
v -35 -46 0
v -35 -45 0
v -34 -45 0
v -35 -46 0
v -36 -46 0
v -36 -45 0
v -35 -45 0
v -36 -46 0
v -37 -46 0
v -37 -45 0
v -36 -45 0
v -37 -46 0
v -38 -46 0
v -38 -45 0
v -37 -45 0
v -38 -46 0
v -39 -46 0
v -39 -45 0
v -38 -45 0
v -39 -46 0
v -40 -46 0
v -40 -45 0
v -39 -45 0
v -40 -46 0
v -41 -46 0
v -41 -45 0
v -40 -45 0
v -33 -47 0
v -34 -47 0
v -34 -46 0
v -33 -46 0
v -34 -47 0
v -35 -47 0
v -35 -46 0
v -34 -46 0
v -35 -47 0
v -36 -47 0
v -36 -46 0
v -35 -46 0
v -36 -47 0
v -37 -47 0
v -37 -46 0
v -36 -46 0
v -37 -47 0
v -38 -47 0
v -38 -46 0
v -37 -46 0
v -38 -47 0
v -39 -47 0
v -39 -46 0
v -38 -46 0
v -39 -47 0
v -40 -47 0
v -40 -46 0
v -39 -46 0
v -40 -47 0
v -41 -47 0
v -41 -46 0
v -40 -46 0
v -33 -48 0
v -34 -48 0
v -34 -47 0
v -33 -47 0
v -34 -48 0
v -35 -48 0
v -35 -47 0
v -34 -47 0
v -35 -48 0
v -36 -48 0
v -36 -47 0
v -35 -47 0
v -36 -48 0
v -37 -48 0
v -37 -47 0
v -36 -47 0
v -37 -48 0
v -38 -48 0
v -38 -47 0
v -37 -47 0
v -38 -48 0
v -39 -48 0
v -39 -47 0
v -38 -47 0
v -39 -48 0
v -40 -48 0
v -40 -47 0
v -39 -47 0
v -40 -48 0
v -41 -48 0
v -41 -47 0
v -40 -47 0
v -33 -49 0
v -34 -49 0
v -34 -48 0
v -33 -48 0
v -34 -49 0
v -35 -49 0
v -35 -48 0
v -34 -48 0
v -35 -49 0
v -36 -49 0
v -36 -48 0
v -35 -48 0
v -36 -49 0
v -37 -49 0
v -37 -48 0
v -36 -48 0
v -37 -49 0
v -38 -49 0
v -38 -48 0
v -37 -48 0
v -38 -49 0
v -39 -49 0
v -39 -48 0
v -38 -48 0
v -39 -49 0
v -40 -49 0
v -40 -48 0
v -39 -48 0
v -40 -49 0
v -41 -49 0
v -41 -48 0
v -40 -48 0
v -33 -50 0
v -34 -50 0
v -34 -49 0
v -33 -49 0
v -34 -50 0
v -35 -50 0
v -35 -49 0
v -34 -49 0
v -35 -50 0
v -36 -50 0
v -36 -49 0
v -35 -49 0
v -36 -50 0
v -37 -50 0
v -37 -49 0
v -36 -49 0
v -37 -50 0
v -38 -50 0
v -38 -49 0
v -37 -49 0
v -38 -50 0
v -39 -50 0
v -39 -49 0
v -38 -49 0
v -39 -50 0
v -40 -50 0
v -40 -49 0
v -39 -49 0
v -40 -50 0
v -41 -50 0
v -41 -49 0
v -40 -49 0

# Texture cooridinates (Count = 12)
vt 0.5882353 0.875
vt 0.6470588 0.875
vt 0.6470588 1
vt 0.5882353 1
vt 0.7058824 0.875
vt 0.7058824 1
vt 0.7647059 0.875
vt 0.7647059 1
vt 0.5882353 0.75
vt 0.6470588 0.75
vt 0.7058824 0.75
vt 0.7647059 0.75

# Normal
vn 0 0 -1

# Mesh description
g stage-2.5_mesh_0003

# Faces
f 1/1/1 2/2/1 3/3/1 4/4/1
f 5/2/1 6/5/1 7/6/1 8/3/1
f 9/2/1 10/5/1 11/6/1 12/3/1
f 13/2/1 14/5/1 15/6/1 16/3/1
f 17/2/1 18/5/1 19/6/1 20/3/1
f 21/2/1 22/5/1 23/6/1 24/3/1
f 25/2/1 26/5/1 27/6/1 28/3/1
f 29/5/1 30/7/1 31/8/1 32/6/1
f 33/9/1 34/10/1 35/2/1 36/1/1
f 37/10/1 38/11/1 39/5/1 40/2/1
f 41/10/1 42/11/1 43/5/1 44/2/1
f 45/10/1 46/11/1 47/5/1 48/2/1
f 49/10/1 50/11/1 51/5/1 52/2/1
f 53/10/1 54/11/1 55/5/1 56/2/1
f 57/10/1 58/11/1 59/5/1 60/2/1
f 61/11/1 62/12/1 63/7/1 64/5/1
f 65/9/1 66/10/1 67/2/1 68/1/1
f 69/10/1 70/11/1 71/5/1 72/2/1
f 73/10/1 74/11/1 75/5/1 76/2/1
f 77/10/1 78/11/1 79/5/1 80/2/1
f 81/10/1 82/11/1 83/5/1 84/2/1
f 85/10/1 86/11/1 87/5/1 88/2/1
f 89/10/1 90/11/1 91/5/1 92/2/1
f 93/11/1 94/12/1 95/7/1 96/5/1
f 97/9/1 98/10/1 99/2/1 100/1/1
f 101/10/1 102/11/1 103/5/1 104/2/1
f 105/10/1 106/11/1 107/5/1 108/2/1
f 109/10/1 110/11/1 111/5/1 112/2/1
f 113/10/1 114/11/1 115/5/1 116/2/1
f 117/10/1 118/11/1 119/5/1 120/2/1
f 121/10/1 122/11/1 123/5/1 124/2/1
f 125/11/1 126/12/1 127/7/1 128/5/1
f 129/9/1 130/10/1 131/2/1 132/1/1
f 133/10/1 134/11/1 135/5/1 136/2/1
f 137/10/1 138/11/1 139/5/1 140/2/1
f 141/10/1 142/11/1 143/5/1 144/2/1
f 145/10/1 146/11/1 147/5/1 148/2/1
f 149/10/1 150/11/1 151/5/1 152/2/1
f 153/10/1 154/11/1 155/5/1 156/2/1
f 157/11/1 158/12/1 159/7/1 160/5/1
f 161/9/1 162/10/1 163/2/1 164/1/1
f 165/10/1 166/11/1 167/5/1 168/2/1
f 169/10/1 170/11/1 171/5/1 172/2/1
f 173/10/1 174/11/1 175/5/1 176/2/1
f 177/10/1 178/11/1 179/5/1 180/2/1
f 181/10/1 182/11/1 183/5/1 184/2/1
f 185/10/1 186/11/1 187/5/1 188/2/1
f 189/11/1 190/12/1 191/7/1 192/5/1
f 193/9/1 194/10/1 195/2/1 196/1/1
f 197/10/1 198/11/1 199/5/1 200/2/1
f 201/10/1 202/11/1 203/5/1 204/2/1
f 205/10/1 206/11/1 207/5/1 208/2/1
f 209/10/1 210/11/1 211/5/1 212/2/1
f 213/10/1 214/11/1 215/5/1 216/2/1
f 217/10/1 218/11/1 219/5/1 220/2/1
f 221/11/1 222/12/1 223/7/1 224/5/1
f 225/9/1 226/10/1 227/2/1 228/1/1
f 229/10/1 230/11/1 231/5/1 232/2/1
f 233/10/1 234/11/1 235/5/1 236/2/1
f 237/10/1 238/11/1 239/5/1 240/2/1
f 241/10/1 242/11/1 243/5/1 244/2/1
f 245/10/1 246/11/1 247/5/1 248/2/1
f 249/10/1 250/11/1 251/5/1 252/2/1
f 253/11/1 254/12/1 255/7/1 256/5/1
f 257/9/1 258/10/1 259/2/1 260/1/1
f 261/10/1 262/11/1 263/5/1 264/2/1
f 265/10/1 266/11/1 267/5/1 268/2/1
f 269/10/1 270/11/1 271/5/1 272/2/1
f 273/10/1 274/11/1 275/5/1 276/2/1
f 277/10/1 278/11/1 279/5/1 280/2/1
f 281/10/1 282/11/1 283/5/1 284/2/1
f 285/11/1 286/12/1 287/7/1 288/5/1

