# Tiled2Unity generated file. Do not modify by hand.
# Wavefront file for 'stage1_mesh_0001.obj'

# Vertices (Count = 432)
v -20 -15 0
v -21 -15 0
v -21 -14 0
v -20 -14 0
v -21 -15 0
v -22 -15 0
v -22 -14 0
v -21 -14 0
v -22 -15 0
v -23 -15 0
v -23 -14 0
v -22 -14 0
v -23 -15 0
v -24 -15 0
v -24 -14 0
v -23 -14 0
v -24 -15 0
v -25 -15 0
v -25 -14 0
v -24 -14 0
v -14 -16 0
v -15 -16 0
v -15 -15 0
v -14 -15 0
v -20 -16 0
v -21 -16 0
v -21 -15 0
v -20 -15 0
v -21 -16 0
v -22 -16 0
v -22 -15 0
v -21 -15 0
v -22 -16 0
v -23 -16 0
v -23 -15 0
v -22 -15 0
v -23 -16 0
v -24 -16 0
v -24 -15 0
v -23 -15 0
v -24 -16 0
v -25 -16 0
v -25 -15 0
v -24 -15 0
v -13 -17 0
v -14 -17 0
v -14 -16 0
v -13 -16 0
v -14 -17 0
v -15 -17 0
v -15 -16 0
v -14 -16 0
v -15 -17 0
v -16 -17 0
v -16 -16 0
v -15 -16 0
v -20 -17 0
v -21 -17 0
v -21 -16 0
v -20 -16 0
v -21 -17 0
v -22 -17 0
v -22 -16 0
v -21 -16 0
v -22 -17 0
v -23 -17 0
v -23 -16 0
v -22 -16 0
v -23 -17 0
v -24 -17 0
v -24 -16 0
v -23 -16 0
v -24 -17 0
v -25 -17 0
v -25 -16 0
v -24 -16 0
v -13 -18 0
v -14 -18 0
v -14 -17 0
v -13 -17 0
v -14 -18 0
v -15 -18 0
v -15 -17 0
v -14 -17 0
v -15 -18 0
v -16 -18 0
v -16 -17 0
v -15 -17 0
v -1 -19 0
v -2 -19 0
v -2 -18 0
v -1 -18 0
v -2 -19 0
v -3 -19 0
v -3 -18 0
v -2 -18 0
v -3 -19 0
v -4 -19 0
v -4 -18 0
v -3 -18 0
v -4 -19 0
v -5 -19 0
v -5 -18 0
v -4 -18 0
v -13 -19 0
v -14 -19 0
v -14 -18 0
v -13 -18 0
v -14 -19 0
v -15 -19 0
v -15 -18 0
v -14 -18 0
v -15 -19 0
v -16 -19 0
v -16 -18 0
v -15 -18 0
v -27 -19 0
v -28 -19 0
v -28 -18 0
v -27 -18 0
v 0 -20 0
v -1 -20 0
v -1 -19 0
v 0 -19 0
v -1 -20 0
v -2 -20 0
v -2 -19 0
v -1 -19 0
v -2 -20 0
v -3 -20 0
v -3 -19 0
v -2 -19 0
v -3 -20 0
v -4 -20 0
v -4 -19 0
v -3 -19 0
v -26 -20 0
v -27 -20 0
v -27 -19 0
v -26 -19 0
v -27 -20 0
v -28 -20 0
v -28 -19 0
v -27 -19 0
v -28 -20 0
v -29 -20 0
v -29 -19 0
v -28 -19 0
v 0 -21 0
v -1 -21 0
v -1 -20 0
v 0 -20 0
v -1 -21 0
v -2 -21 0
v -2 -20 0
v -1 -20 0
v -2 -21 0
v -3 -21 0
v -3 -20 0
v -2 -20 0
v -26 -21 0
v -27 -21 0
v -27 -20 0
v -26 -20 0
v -27 -21 0
v -28 -21 0
v -28 -20 0
v -27 -20 0
v -28 -21 0
v -29 -21 0
v -29 -20 0
v -28 -20 0
v -1 -22 0
v -2 -22 0
v -2 -21 0
v -1 -21 0
v -2 -22 0
v -3 -22 0
v -3 -21 0
v -2 -21 0
v -3 -22 0
v -4 -22 0
v -4 -21 0
v -3 -21 0
v -14 -22 0
v -15 -22 0
v -15 -21 0
v -14 -21 0
v -26 -22 0
v -27 -22 0
v -27 -21 0
v -26 -21 0
v -27 -22 0
v -28 -22 0
v -28 -21 0
v -27 -21 0
v -28 -22 0
v -29 -22 0
v -29 -21 0
v -28 -21 0
v -1 -23 0
v -2 -23 0
v -2 -22 0
v -1 -22 0
v -2 -23 0
v -3 -23 0
v -3 -22 0
v -2 -22 0
v -3 -23 0
v -4 -23 0
v -4 -22 0
v -3 -22 0
v -13 -23 0
v -14 -23 0
v -14 -22 0
v -13 -22 0
v -14 -23 0
v -15 -23 0
v -15 -22 0
v -14 -22 0
v -15 -23 0
v -16 -23 0
v -16 -22 0
v -15 -22 0
v -1 -24 0
v -2 -24 0
v -2 -23 0
v -1 -23 0
v -2 -24 0
v -3 -24 0
v -3 -23 0
v -2 -23 0
v -13 -24 0
v -14 -24 0
v -14 -23 0
v -13 -23 0
v -14 -24 0
v -15 -24 0
v -15 -23 0
v -14 -23 0
v -15 -24 0
v -16 -24 0
v -16 -23 0
v -15 -23 0
v -1 -25 0
v -2 -25 0
v -2 -24 0
v -1 -24 0
v -2 -25 0
v -3 -25 0
v -3 -24 0
v -2 -24 0
v -13 -25 0
v -14 -25 0
v -14 -24 0
v -13 -24 0
v -14 -25 0
v -15 -25 0
v -15 -24 0
v -14 -24 0
v -15 -25 0
v -16 -25 0
v -16 -24 0
v -15 -24 0
v 0 -26 0
v -1 -26 0
v -1 -25 0
v 0 -25 0
v -1 -26 0
v -2 -26 0
v -2 -25 0
v -1 -25 0
v -2 -26 0
v -3 -26 0
v -3 -25 0
v -2 -25 0
v -11 -28 0
v -12 -28 0
v -12 -27 0
v -11 -27 0
v -12 -28 0
v -13 -28 0
v -13 -27 0
v -12 -27 0
v -13 -28 0
v -14 -28 0
v -14 -27 0
v -13 -27 0
v -14 -28 0
v -15 -28 0
v -15 -27 0
v -14 -27 0
v -15 -28 0
v -16 -28 0
v -16 -27 0
v -15 -27 0
v -16 -28 0
v -17 -28 0
v -17 -27 0
v -16 -27 0
v -17 -28 0
v -18 -28 0
v -18 -27 0
v -17 -27 0
v -18 -28 0
v -19 -28 0
v -19 -27 0
v -18 -27 0
v -25 -28 0
v -26 -28 0
v -26 -27 0
v -25 -27 0
v -26 -28 0
v -27 -28 0
v -27 -27 0
v -26 -27 0
v -27 -28 0
v -28 -28 0
v -28 -27 0
v -27 -27 0
v -28 -28 0
v -29 -28 0
v -29 -27 0
v -28 -27 0
v -29 -28 0
v -30 -28 0
v -30 -27 0
v -29 -27 0
v -11 -29 0
v -12 -29 0
v -12 -28 0
v -11 -28 0
v -12 -29 0
v -13 -29 0
v -13 -28 0
v -12 -28 0
v -13 -29 0
v -14 -29 0
v -14 -28 0
v -13 -28 0
v -14 -29 0
v -15 -29 0
v -15 -28 0
v -14 -28 0
v -15 -29 0
v -16 -29 0
v -16 -28 0
v -15 -28 0
v -16 -29 0
v -17 -29 0
v -17 -28 0
v -16 -28 0
v -17 -29 0
v -18 -29 0
v -18 -28 0
v -17 -28 0
v -18 -29 0
v -19 -29 0
v -19 -28 0
v -18 -28 0
v -25 -29 0
v -26 -29 0
v -26 -28 0
v -25 -28 0
v -26 -29 0
v -27 -29 0
v -27 -28 0
v -26 -28 0
v -27 -29 0
v -28 -29 0
v -28 -28 0
v -27 -28 0
v -28 -29 0
v -29 -29 0
v -29 -28 0
v -28 -28 0
v -29 -29 0
v -30 -29 0
v -30 -28 0
v -29 -28 0
v -11 -30 0
v -12 -30 0
v -12 -29 0
v -11 -29 0
v -12 -30 0
v -13 -30 0
v -13 -29 0
v -12 -29 0
v -13 -30 0
v -14 -30 0
v -14 -29 0
v -13 -29 0
v -14 -30 0
v -15 -30 0
v -15 -29 0
v -14 -29 0
v -15 -30 0
v -16 -30 0
v -16 -29 0
v -15 -29 0
v -16 -30 0
v -17 -30 0
v -17 -29 0
v -16 -29 0
v -17 -30 0
v -18 -30 0
v -18 -29 0
v -17 -29 0
v -18 -30 0
v -19 -30 0
v -19 -29 0
v -18 -29 0
v -25 -30 0
v -26 -30 0
v -26 -29 0
v -25 -29 0
v -26 -30 0
v -27 -30 0
v -27 -29 0
v -26 -29 0
v -27 -30 0
v -28 -30 0
v -28 -29 0
v -27 -29 0
v -28 -30 0
v -29 -30 0
v -29 -29 0
v -28 -29 0
v -29 -30 0
v -30 -30 0
v -30 -29 0
v -29 -29 0

# Texture cooridinates (Count = 79)
vt 0.5882353 0.625
vt 0.6470588 0.625
vt 0.6470588 0.75
vt 0.5882353 0.75
vt 0.7058824 0.625
vt 0.7058824 0.75
vt 0.7647059 0.625
vt 0.7647059 0.75
vt 0.8235294 0.25
vt 0.8823529 0.25
vt 0.8823529 0.375
vt 0.8235294 0.375
vt 0.5882353 0.5
vt 0.6470588 0.5
vt 0.7058824 0.875
vt 0.6470588 0.875
vt 0.4117647 0.5
vt 0.4705882 0.5
vt 0.4705882 0.625
vt 0.4117647 0.625
vt 0.7058824 0.5
vt 0.7647059 0.5
vt 0.6470588 0.375
vt 0.7058824 0.375
vt 0.7647059 0.375
vt 0.8235294 0.5
vt 0.6470588 0.25
vt 0.7058824 0.25
vt 0.7647059 0.25
vt 0.1764706 0.875
vt 0.2352941 0.875
vt 0.2352941 1
vt 0.1764706 1
vt 0.2941177 0.875
vt 0.2941177 1
vt 0.3529412 0.875
vt 0.3529412 1
vt 0.4117647 0.875
vt 0.4117647 1
vt 0.6470588 0.125
vt 0.7058824 0.125
vt 0.7647059 0.125
vt 0.8235294 0.125
vt 0.1176471 0.75
vt 0.1764706 0.75
vt 0.1176471 0.875
vt 0.2352941 0.75
vt 0.2941177 0.75
vt 0.3529412 0.75
vt 0.1176471 0.625
vt 0.1764706 0.625
vt 0.2352941 0.625
vt 0.2941177 0.625
vt 0.1764706 0.5
vt 0.2352941 0.5
vt 0.2941177 0.5
vt 0.3529412 0.5
vt 0.3529412 0.625
vt 0.1764706 0.375
vt 0.2352941 0.375
vt 0.2941177 0.375
vt 0.3529412 0.375
vt 0.1764706 0.25
vt 0.2352941 0.25
vt 0.2941177 0.25
vt 0.1764706 0.125
vt 0.2352941 0.125
vt 0.2941177 0.125
vt 0.1176471 0
vt 0.1764706 0
vt 0.1176471 0.125
vt 0.2352941 0
vt 0.2941177 0
vt 0.4705882 0.25
vt 0.5294118 0.25
vt 0.5294118 0.375
vt 0.4705882 0.375
vt 0.4705882 0.125
vt 0.5294118 0.125

# Normal
vn 0 0 -1

# Mesh description
g stage1_mesh_0001

# Faces
f 1/1/1 2/2/1 3/3/1 4/4/1
f 5/2/1 6/5/1 7/6/1 8/3/1
f 9/2/1 10/5/1 11/6/1 12/3/1
f 13/2/1 14/5/1 15/6/1 16/3/1
f 17/5/1 18/7/1 19/8/1 20/6/1
f 21/9/1 22/10/1 23/11/1 24/12/1
f 25/13/1 26/14/1 27/2/1 28/1/1
f 29/3/1 30/6/1 31/15/1 32/16/1
f 33/17/1 34/18/1 35/19/1 36/20/1
f 37/3/1 38/6/1 39/15/1 40/16/1
f 41/21/1 42/22/1 43/7/1 44/5/1
f 45/23/1 46/24/1 47/21/1 48/14/1
f 49/24/1 50/25/1 51/22/1 52/21/1
f 53/25/1 54/12/1 55/26/1 56/22/1
f 57/13/1 58/14/1 59/2/1 60/1/1
f 61/17/1 62/18/1 63/19/1 64/20/1
f 65/3/1 66/6/1 67/15/1 68/16/1
f 69/3/1 70/6/1 71/15/1 72/16/1
f 73/21/1 74/22/1 75/7/1 76/5/1
f 77/27/1 78/28/1 79/24/1 80/23/1
f 81/28/1 82/29/1 83/25/1 84/24/1
f 85/29/1 86/9/1 87/12/1 88/25/1
f 89/30/1 90/31/1 91/32/1 92/33/1
f 93/31/1 94/34/1 95/35/1 96/32/1
f 97/34/1 98/36/1 99/37/1 100/35/1
f 101/36/1 102/38/1 103/39/1 104/37/1
f 105/40/1 106/41/1 107/28/1 108/27/1
f 109/41/1 110/42/1 111/29/1 112/28/1
f 113/42/1 114/43/1 115/9/1 116/29/1
f 117/9/1 118/10/1 119/11/1 120/12/1
f 121/44/1 122/45/1 123/30/1 124/46/1
f 125/45/1 126/47/1 127/31/1 128/30/1
f 129/47/1 130/48/1 131/34/1 132/31/1
f 133/48/1 134/49/1 135/36/1 136/34/1
f 137/23/1 138/24/1 139/21/1 140/14/1
f 141/24/1 142/25/1 143/22/1 144/21/1
f 145/25/1 146/12/1 147/26/1 148/22/1
f 149/50/1 150/51/1 151/45/1 152/44/1
f 153/51/1 154/52/1 155/47/1 156/45/1
f 157/52/1 158/53/1 159/48/1 160/47/1
f 161/27/1 162/28/1 163/24/1 164/23/1
f 165/28/1 166/29/1 167/25/1 168/24/1
f 169/29/1 170/9/1 171/12/1 172/25/1
f 173/54/1 174/55/1 175/52/1 176/51/1
f 177/55/1 178/56/1 179/53/1 180/52/1
f 181/56/1 182/57/1 183/58/1 184/53/1
f 185/9/1 186/10/1 187/11/1 188/12/1
f 189/40/1 190/41/1 191/28/1 192/27/1
f 193/41/1 194/42/1 195/29/1 196/28/1
f 197/42/1 198/43/1 199/9/1 200/29/1
f 201/59/1 202/60/1 203/55/1 204/54/1
f 205/60/1 206/61/1 207/56/1 208/55/1
f 209/61/1 210/62/1 211/57/1 212/56/1
f 213/23/1 214/24/1 215/21/1 216/14/1
f 217/24/1 218/25/1 219/22/1 220/21/1
f 221/25/1 222/12/1 223/26/1 224/22/1
f 225/63/1 226/64/1 227/60/1 228/59/1
f 229/64/1 230/65/1 231/61/1 232/60/1
f 233/27/1 234/28/1 235/24/1 236/23/1
f 237/28/1 238/29/1 239/25/1 240/24/1
f 241/29/1 242/9/1 243/12/1 244/25/1
f 245/66/1 246/67/1 247/64/1 248/63/1
f 249/67/1 250/68/1 251/65/1 252/64/1
f 253/40/1 254/41/1 255/28/1 256/27/1
f 257/41/1 258/42/1 259/29/1 260/28/1
f 261/42/1 262/43/1 263/9/1 264/29/1
f 265/69/1 266/70/1 267/66/1 268/71/1
f 269/70/1 270/72/1 271/67/1 272/66/1
f 273/72/1 274/73/1 275/68/1 276/67/1
f 277/74/1 278/75/1 279/76/1 280/77/1
f 281/74/1 282/75/1 283/76/1 284/77/1
f 285/74/1 286/75/1 287/76/1 288/77/1
f 289/74/1 290/75/1 291/76/1 292/77/1
f 293/74/1 294/75/1 295/76/1 296/77/1
f 297/74/1 298/75/1 299/76/1 300/77/1
f 301/74/1 302/75/1 303/76/1 304/77/1
f 305/74/1 306/75/1 307/76/1 308/77/1
f 309/74/1 310/75/1 311/76/1 312/77/1
f 313/74/1 314/75/1 315/76/1 316/77/1
f 317/74/1 318/75/1 319/76/1 320/77/1
f 321/74/1 322/75/1 323/76/1 324/77/1
f 325/74/1 326/75/1 327/76/1 328/77/1
f 329/78/1 330/79/1 331/75/1 332/74/1
f 333/78/1 334/79/1 335/75/1 336/74/1
f 337/3/1 338/6/1 339/15/1 340/16/1
f 341/3/1 342/6/1 343/15/1 344/16/1
f 345/78/1 346/79/1 347/75/1 348/74/1
f 349/3/1 350/6/1 351/15/1 352/16/1
f 353/78/1 354/79/1 355/75/1 356/74/1
f 357/78/1 358/79/1 359/75/1 360/74/1
f 361/3/1 362/6/1 363/15/1 364/16/1
f 365/78/1 366/79/1 367/75/1 368/74/1
f 369/3/1 370/6/1 371/15/1 372/16/1
f 373/78/1 374/79/1 375/75/1 376/74/1
f 377/3/1 378/6/1 379/15/1 380/16/1
f 381/78/1 382/79/1 383/75/1 384/74/1
f 385/3/1 386/6/1 387/15/1 388/16/1
f 389/3/1 390/6/1 391/15/1 392/16/1
f 393/78/1 394/79/1 395/75/1 396/74/1
f 397/3/1 398/6/1 399/15/1 400/16/1
f 401/3/1 402/6/1 403/15/1 404/16/1
f 405/3/1 406/6/1 407/15/1 408/16/1
f 409/78/1 410/79/1 411/75/1 412/74/1
f 413/3/1 414/6/1 415/15/1 416/16/1
f 417/3/1 418/6/1 419/15/1 420/16/1
f 421/78/1 422/79/1 423/75/1 424/74/1
f 425/3/1 426/6/1 427/15/1 428/16/1
f 429/3/1 430/6/1 431/15/1 432/16/1

