# Tiled2Unity generated file. Do not modify by hand.
# Wavefront file for 'stage1_mesh_0002.obj'

# Vertices (Count = 384)
v -18 -25 0
v -19 -25 0
v -19 -24 0
v -18 -24 0
v -19 -25 0
v -20 -25 0
v -20 -24 0
v -19 -24 0
v -20 -25 0
v -21 -25 0
v -21 -24 0
v -20 -24 0
v -21 -25 0
v -22 -25 0
v -22 -24 0
v -21 -24 0
v -22 -25 0
v -23 -25 0
v -23 -24 0
v -22 -24 0
v -23 -25 0
v -24 -25 0
v -24 -24 0
v -23 -24 0
v -24 -25 0
v -25 -25 0
v -25 -24 0
v -24 -24 0
v -25 -25 0
v -26 -25 0
v -26 -24 0
v -25 -24 0
v -18 -26 0
v -19 -26 0
v -19 -25 0
v -18 -25 0
v -19 -26 0
v -20 -26 0
v -20 -25 0
v -19 -25 0
v -20 -26 0
v -21 -26 0
v -21 -25 0
v -20 -25 0
v -21 -26 0
v -22 -26 0
v -22 -25 0
v -21 -25 0
v -22 -26 0
v -23 -26 0
v -23 -25 0
v -22 -25 0
v -23 -26 0
v -24 -26 0
v -24 -25 0
v -23 -25 0
v -24 -26 0
v -25 -26 0
v -25 -25 0
v -24 -25 0
v -25 -26 0
v -26 -26 0
v -26 -25 0
v -25 -25 0
v 0 -27 0
v -1 -27 0
v -1 -26 0
v 0 -26 0
v -1 -27 0
v -2 -27 0
v -2 -26 0
v -1 -26 0
v -2 -27 0
v -3 -27 0
v -3 -26 0
v -2 -26 0
v -3 -27 0
v -4 -27 0
v -4 -26 0
v -3 -26 0
v -4 -27 0
v -5 -27 0
v -5 -26 0
v -4 -26 0
v -5 -27 0
v -6 -27 0
v -6 -26 0
v -5 -26 0
v -6 -27 0
v -7 -27 0
v -7 -26 0
v -6 -26 0
v -7 -27 0
v -8 -27 0
v -8 -26 0
v -7 -26 0
v -8 -27 0
v -9 -27 0
v -9 -26 0
v -8 -26 0
v -9 -27 0
v -10 -27 0
v -10 -26 0
v -9 -26 0
v -10 -27 0
v -11 -27 0
v -11 -26 0
v -10 -26 0
v -11 -27 0
v -12 -27 0
v -12 -26 0
v -11 -26 0
v -18 -27 0
v -19 -27 0
v -19 -26 0
v -18 -26 0
v -19 -27 0
v -20 -27 0
v -20 -26 0
v -19 -26 0
v -20 -27 0
v -21 -27 0
v -21 -26 0
v -20 -26 0
v -21 -27 0
v -22 -27 0
v -22 -26 0
v -21 -26 0
v -22 -27 0
v -23 -27 0
v -23 -26 0
v -22 -26 0
v -23 -27 0
v -24 -27 0
v -24 -26 0
v -23 -26 0
v -24 -27 0
v -25 -27 0
v -25 -26 0
v -24 -26 0
v -25 -27 0
v -26 -27 0
v -26 -26 0
v -25 -26 0
v 0 -28 0
v -1 -28 0
v -1 -27 0
v 0 -27 0
v -1 -28 0
v -2 -28 0
v -2 -27 0
v -1 -27 0
v -2 -28 0
v -3 -28 0
v -3 -27 0
v -2 -27 0
v -3 -28 0
v -4 -28 0
v -4 -27 0
v -3 -27 0
v -4 -28 0
v -5 -28 0
v -5 -27 0
v -4 -27 0
v -5 -28 0
v -6 -28 0
v -6 -27 0
v -5 -27 0
v -6 -28 0
v -7 -28 0
v -7 -27 0
v -6 -27 0
v -7 -28 0
v -8 -28 0
v -8 -27 0
v -7 -27 0
v -8 -28 0
v -9 -28 0
v -9 -27 0
v -8 -27 0
v -9 -28 0
v -10 -28 0
v -10 -27 0
v -9 -27 0
v -10 -28 0
v -11 -28 0
v -11 -27 0
v -10 -27 0
v -11 -28 0
v -12 -28 0
v -12 -27 0
v -11 -27 0
v -18 -28 0
v -19 -28 0
v -19 -27 0
v -18 -27 0
v -19 -28 0
v -20 -28 0
v -20 -27 0
v -19 -27 0
v -20 -28 0
v -21 -28 0
v -21 -27 0
v -20 -27 0
v -21 -28 0
v -22 -28 0
v -22 -27 0
v -21 -27 0
v -22 -28 0
v -23 -28 0
v -23 -27 0
v -22 -27 0
v -23 -28 0
v -24 -28 0
v -24 -27 0
v -23 -27 0
v -24 -28 0
v -25 -28 0
v -25 -27 0
v -24 -27 0
v -25 -28 0
v -26 -28 0
v -26 -27 0
v -25 -27 0
v 0 -29 0
v -1 -29 0
v -1 -28 0
v 0 -28 0
v -1 -29 0
v -2 -29 0
v -2 -28 0
v -1 -28 0
v -2 -29 0
v -3 -29 0
v -3 -28 0
v -2 -28 0
v -3 -29 0
v -4 -29 0
v -4 -28 0
v -3 -28 0
v -4 -29 0
v -5 -29 0
v -5 -28 0
v -4 -28 0
v -5 -29 0
v -6 -29 0
v -6 -28 0
v -5 -28 0
v -6 -29 0
v -7 -29 0
v -7 -28 0
v -6 -28 0
v -7 -29 0
v -8 -29 0
v -8 -28 0
v -7 -28 0
v -8 -29 0
v -9 -29 0
v -9 -28 0
v -8 -28 0
v -9 -29 0
v -10 -29 0
v -10 -28 0
v -9 -28 0
v -10 -29 0
v -11 -29 0
v -11 -28 0
v -10 -28 0
v -11 -29 0
v -12 -29 0
v -12 -28 0
v -11 -28 0
v -18 -29 0
v -19 -29 0
v -19 -28 0
v -18 -28 0
v -19 -29 0
v -20 -29 0
v -20 -28 0
v -19 -28 0
v -20 -29 0
v -21 -29 0
v -21 -28 0
v -20 -28 0
v -21 -29 0
v -22 -29 0
v -22 -28 0
v -21 -28 0
v -22 -29 0
v -23 -29 0
v -23 -28 0
v -22 -28 0
v -23 -29 0
v -24 -29 0
v -24 -28 0
v -23 -28 0
v -24 -29 0
v -25 -29 0
v -25 -28 0
v -24 -28 0
v -25 -29 0
v -26 -29 0
v -26 -28 0
v -25 -28 0
v 0 -30 0
v -1 -30 0
v -1 -29 0
v 0 -29 0
v -1 -30 0
v -2 -30 0
v -2 -29 0
v -1 -29 0
v -2 -30 0
v -3 -30 0
v -3 -29 0
v -2 -29 0
v -3 -30 0
v -4 -30 0
v -4 -29 0
v -3 -29 0
v -4 -30 0
v -5 -30 0
v -5 -29 0
v -4 -29 0
v -5 -30 0
v -6 -30 0
v -6 -29 0
v -5 -29 0
v -6 -30 0
v -7 -30 0
v -7 -29 0
v -6 -29 0
v -7 -30 0
v -8 -30 0
v -8 -29 0
v -7 -29 0
v -8 -30 0
v -9 -30 0
v -9 -29 0
v -8 -29 0
v -9 -30 0
v -10 -30 0
v -10 -29 0
v -9 -29 0
v -10 -30 0
v -11 -30 0
v -11 -29 0
v -10 -29 0
v -11 -30 0
v -12 -30 0
v -12 -29 0
v -11 -29 0
v -18 -30 0
v -19 -30 0
v -19 -29 0
v -18 -29 0
v -19 -30 0
v -20 -30 0
v -20 -29 0
v -19 -29 0
v -20 -30 0
v -21 -30 0
v -21 -29 0
v -20 -29 0
v -21 -30 0
v -22 -30 0
v -22 -29 0
v -21 -29 0
v -22 -30 0
v -23 -30 0
v -23 -29 0
v -22 -29 0
v -23 -30 0
v -24 -30 0
v -24 -29 0
v -23 -29 0
v -24 -30 0
v -25 -30 0
v -25 -29 0
v -24 -29 0
v -25 -30 0
v -26 -30 0
v -26 -29 0
v -25 -29 0

# Texture cooridinates (Count = 29)
vt 0.5882353 0.625
vt 0.6470588 0.625
vt 0.6470588 0.75
vt 0.5882353 0.75
vt 0.7058824 0.625
vt 0.7058824 0.75
vt 0.4117647 0.625
vt 0.4705882 0.625
vt 0.4705882 0.75
vt 0.4117647 0.75
vt 0.5294118 0.625
vt 0.5294118 0.75
vt 0.7647059 0.625
vt 0.7647059 0.75
vt 0.5882353 0.5
vt 0.6470588 0.5
vt 0.7058824 0.875
vt 0.6470588 0.875
vt 0.4117647 0.5
vt 0.4705882 0.5
vt 0.7058824 0.5
vt 0.7647059 0.5
vt 0.5294118 0.875
vt 0.4705882 0.875
vt 0.5294118 1
vt 0.4705882 1
vt 0.5882353 0.875
vt 0.4117647 0.875
vt 0.7647059 0.875

# Normal
vn 0 0 -1

# Mesh description
g stage1_mesh_0002

# Faces
f 1/1/1 2/2/1 3/3/1 4/4/1
f 5/2/1 6/5/1 7/6/1 8/3/1
f 9/2/1 10/5/1 11/6/1 12/3/1
f 13/7/1 14/8/1 15/9/1 16/10/1
f 17/11/1 18/1/1 19/4/1 20/12/1
f 21/2/1 22/5/1 23/6/1 24/3/1
f 25/2/1 26/5/1 27/6/1 28/3/1
f 29/5/1 30/13/1 31/14/1 32/6/1
f 33/15/1 34/16/1 35/2/1 36/1/1
f 37/3/1 38/6/1 39/17/1 40/18/1
f 41/19/1 42/20/1 43/8/1 44/7/1
f 45/3/1 46/6/1 47/17/1 48/18/1
f 49/3/1 50/6/1 51/17/1 52/18/1
f 53/3/1 54/6/1 55/17/1 56/18/1
f 57/3/1 58/6/1 59/17/1 60/18/1
f 61/21/1 62/22/1 63/13/1 64/5/1
f 65/9/1 66/12/1 67/23/1 68/24/1
f 69/24/1 70/23/1 71/25/1 72/26/1
f 73/24/1 74/23/1 75/25/1 76/26/1
f 77/24/1 78/23/1 79/25/1 80/26/1
f 81/24/1 82/23/1 83/25/1 84/26/1
f 85/24/1 86/23/1 87/25/1 88/26/1
f 89/24/1 90/23/1 91/25/1 92/26/1
f 93/24/1 94/23/1 95/25/1 96/26/1
f 97/24/1 98/23/1 99/25/1 100/26/1
f 101/24/1 102/23/1 103/25/1 104/26/1
f 105/24/1 106/23/1 107/25/1 108/26/1
f 109/12/1 110/4/1 111/27/1 112/23/1
f 113/15/1 114/16/1 115/2/1 116/1/1
f 117/3/1 118/6/1 119/17/1 120/18/1
f 121/3/1 122/6/1 123/17/1 124/18/1
f 125/3/1 126/6/1 127/17/1 128/18/1
f 129/3/1 130/6/1 131/17/1 132/18/1
f 133/3/1 134/6/1 135/17/1 136/18/1
f 137/3/1 138/6/1 139/17/1 140/18/1
f 141/21/1 142/22/1 143/13/1 144/5/1
f 145/4/1 146/3/1 147/18/1 148/27/1
f 149/3/1 150/6/1 151/17/1 152/18/1
f 153/3/1 154/6/1 155/17/1 156/18/1
f 157/10/1 158/9/1 159/24/1 160/28/1
f 161/3/1 162/6/1 163/17/1 164/18/1
f 165/3/1 166/6/1 167/17/1 168/18/1
f 169/3/1 170/6/1 171/17/1 172/18/1
f 173/3/1 174/6/1 175/17/1 176/18/1
f 177/3/1 178/6/1 179/17/1 180/18/1
f 181/10/1 182/9/1 183/24/1 184/28/1
f 185/3/1 186/6/1 187/17/1 188/18/1
f 189/6/1 190/14/1 191/29/1 192/17/1
f 193/15/1 194/16/1 195/2/1 196/1/1
f 197/3/1 198/6/1 199/17/1 200/18/1
f 201/3/1 202/6/1 203/17/1 204/18/1
f 205/3/1 206/6/1 207/17/1 208/18/1
f 209/3/1 210/6/1 211/17/1 212/18/1
f 213/19/1 214/20/1 215/8/1 216/7/1
f 217/3/1 218/6/1 219/17/1 220/18/1
f 221/21/1 222/22/1 223/13/1 224/5/1
f 225/4/1 226/3/1 227/18/1 228/27/1
f 229/10/1 230/9/1 231/24/1 232/28/1
f 233/3/1 234/6/1 235/17/1 236/18/1
f 237/3/1 238/6/1 239/17/1 240/18/1
f 241/3/1 242/6/1 243/17/1 244/18/1
f 245/3/1 246/6/1 247/17/1 248/18/1
f 249/3/1 250/6/1 251/17/1 252/18/1
f 253/3/1 254/6/1 255/17/1 256/18/1
f 257/3/1 258/6/1 259/17/1 260/18/1
f 261/3/1 262/6/1 263/17/1 264/18/1
f 265/10/1 266/9/1 267/24/1 268/28/1
f 269/6/1 270/14/1 271/29/1 272/17/1
f 273/15/1 274/16/1 275/2/1 276/1/1
f 277/19/1 278/20/1 279/8/1 280/7/1
f 281/3/1 282/6/1 283/17/1 284/18/1
f 285/3/1 286/6/1 287/17/1 288/18/1
f 289/3/1 290/6/1 291/17/1 292/18/1
f 293/3/1 294/6/1 295/17/1 296/18/1
f 297/19/1 298/20/1 299/8/1 300/7/1
f 301/21/1 302/22/1 303/13/1 304/5/1
f 305/4/1 306/3/1 307/18/1 308/27/1
f 309/3/1 310/6/1 311/17/1 312/18/1
f 313/3/1 314/6/1 315/17/1 316/18/1
f 317/3/1 318/6/1 319/17/1 320/18/1
f 321/3/1 322/6/1 323/17/1 324/18/1
f 325/10/1 326/9/1 327/24/1 328/28/1
f 329/3/1 330/6/1 331/17/1 332/18/1
f 333/3/1 334/6/1 335/17/1 336/18/1
f 337/3/1 338/6/1 339/17/1 340/18/1
f 341/3/1 342/6/1 343/17/1 344/18/1
f 345/3/1 346/6/1 347/17/1 348/18/1
f 349/6/1 350/14/1 351/29/1 352/17/1
f 353/15/1 354/16/1 355/2/1 356/1/1
f 357/3/1 358/6/1 359/17/1 360/18/1
f 361/3/1 362/6/1 363/17/1 364/18/1
f 365/3/1 366/6/1 367/17/1 368/18/1
f 369/3/1 370/6/1 371/17/1 372/18/1
f 373/3/1 374/6/1 375/17/1 376/18/1
f 377/3/1 378/6/1 379/17/1 380/18/1
f 381/21/1 382/22/1 383/13/1 384/5/1

